{
  "accessors": [
    {
      "bufferView": 2,
      "componentType": 5126,
      "count": 1020,
      "max": [
        2.5849695205688477,
        1.7153371572494507,
        4.00055456161499
      ],
      "min": [
        -2.584969997406006,
        -6.056538381926657e-07,
        -4.00055456161499
      ],
      "type": "VEC3"
    },
    {
      "bufferView": 2,
      "byteOffset": 12240,
      "componentType": 5126,
      "count": 1020,
      "max": [
        1.0,
        1.0,
        0.9951848983764648
      ],
      "min": [
        -1.0,
        -1.0,
        -0.9951849579811096
      ],
      "type": "VEC3"
    },
    {
      "bufferView": 3,
      "componentType": 5126,
      "count": 1020,
      "max": [
        4.801571776624769e-06,
        0.9951850771903992,
        1.0,
        1.0
      ],
      "min": [
        -6.902798759256257e-06,
        -0.9951850771903992,
        -1.0,
        1.0
      ],
      "type": "VEC4"
    },
    {
      "bufferView": 1,
      "componentType": 5126,
      "count": 1020,
      "max": [
        0.9728349447250366,
        0.42255401611328125
      ],
      "min": [
        0.31438741087913513,
        0.04586911201477051
      ],
      "type": "VEC2"
    },
    {
      "bufferView": 1,
      "byteOffset": 8160,
      "componentType": 5126,
      "count": 1020,
      "max": [
        0.9728349447250366,
        0.42255401611328125
      ],
      "min": [
        0.31438741087913513,
        0.04586911201477051
      ],
      "type": "VEC2"
    },
    {
      "bufferView": 1,
      "byteOffset": 16320,
      "componentType": 5126,
      "count": 1020,
      "max": [
        0.9728349447250366,
        0.42255401611328125
      ],
      "min": [
        0.31438741087913513,
        0.04586911201477051
      ],
      "type": "VEC2"
    },
    {
      "bufferView": 1,
      "byteOffset": 24480,
      "componentType": 5126,
      "count": 1020,
      "max": [
        0.9728349447250366,
        0.42255401611328125
      ],
      "min": [
        0.31438741087913513,
        0.04586911201477051
      ],
      "type": "VEC2"
    },
    {
      "bufferView": 0,
      "componentType": 5125,
      "count": 4032,
      "type": "SCALAR"
    },
    {
      "bufferView": 2,
      "byteOffset": 24480,
      "componentType": 5126,
      "count": 572,
      "max": [
        2.5459110736846924,
        2.6298420429229736,
        5.107755184173584
      ],
      "min": [
        -2.5459117889404297,
        -8.81009782460751e-07,
        -5.1077561378479
      ],
      "type": "VEC3"
    },
    {
      "bufferView": 2,
      "byteOffset": 31344,
      "componentType": 5126,
      "count": 572,
      "max": [
        1.0,
        1.0,
        0.16894429922103882
      ],
      "min": [
        -1.0,
        -1.9231406440667342e-06,
        -0.16894502937793732
      ],
      "type": "VEC3"
    },
    {
      "bufferView": 3,
      "byteOffset": 16320,
      "componentType": 5126,
      "count": 572,
      "max": [
        2.5985834781749872e-06,
        0.005198224913328886,
        1.0,
        1.0
      ],
      "min": [
        -1.0,
        -0.005198225378990173,
        -1.0,
        1.0
      ],
      "type": "VEC4"
    },
    {
      "bufferView": 1,
      "byteOffset": 32640,
      "componentType": 5126,
      "count": 572,
      "max": [
        0.9824398756027222,
        0.8049154281616211
      ],
      "min": [
        0.010094702243804932,
        0.04586869478225708
      ],
      "type": "VEC2"
    },
    {
      "bufferView": 1,
      "byteOffset": 37216,
      "componentType": 5126,
      "count": 572,
      "max": [
        0.9824398756027222,
        0.8049154281616211
      ],
      "min": [
        0.010094702243804932,
        0.04586869478225708
      ],
      "type": "VEC2"
    },
    {
      "bufferView": 1,
      "byteOffset": 41792,
      "componentType": 5126,
      "count": 572,
      "max": [
        0.9824398756027222,
        0.8049154281616211
      ],
      "min": [
        0.010094702243804932,
        0.04586869478225708
      ],
      "type": "VEC2"
    },
    {
      "bufferView": 1,
      "byteOffset": 46368,
      "componentType": 5126,
      "count": 572,
      "max": [
        0.9824398756027222,
        0.8049154281616211
      ],
      "min": [
        0.010094702243804932,
        0.04586869478225708
      ],
      "type": "VEC2"
    },
    {
      "bufferView": 0,
      "byteOffset": 16128,
      "componentType": 5125,
      "count": 2700,
      "type": "SCALAR"
    },
    {
      "bufferView": 2,
      "byteOffset": 38208,
      "componentType": 5126,
      "count": 304,
      "max": [
        2.6237661838531494,
        4.303569793701172,
        0.09426388889551163
      ],
      "min": [
        -2.6237661838531494,
        2.5146560668945313,
        -0.6651594638824463
      ],
      "type": "VEC3"
    },
    {
      "bufferView": 2,
      "byteOffset": 41856,
      "componentType": 5126,
      "count": 304,
      "max": [
        1.0,
        1.0,
        1.0
      ],
      "min": [
        -1.0,
        -1.0,
        -1.0
      ],
      "type": "VEC3"
    },
    {
      "bufferView": 3,
      "byteOffset": 25472,
      "componentType": 5126,
      "count": 304,
      "max": [
        1.0,
        1.0,
        1.0,
        1.0
      ],
      "min": [
        -1.0,
        -0.6528874039649963,
        -1.0,
        1.0
      ],
      "type": "VEC4"
    },
    {
      "bufferView": 1,
      "byteOffset": 50944,
      "componentType": 5126,
      "count": 304,
      "max": [
        0.9915110468864441,
        0.9917764067649841
      ],
      "min": [
        0.22143447399139404,
        0.0056549906730651855
      ],
      "type": "VEC2"
    },
    {
      "bufferView": 1,
      "byteOffset": 53376,
      "componentType": 5126,
      "count": 304,
      "max": [
        0.9915110468864441,
        0.9917764067649841
      ],
      "min": [
        0.22143447399139404,
        0.0056549906730651855
      ],
      "type": "VEC2"
    },
    {
      "bufferView": 1,
      "byteOffset": 55808,
      "componentType": 5126,
      "count": 304,
      "max": [
        0.9915110468864441,
        0.9917764067649841
      ],
      "min": [
        0.22143447399139404,
        0.0056549906730651855
      ],
      "type": "VEC2"
    },
    {
      "bufferView": 1,
      "byteOffset": 58240,
      "componentType": 5126,
      "count": 304,
      "max": [
        0.9915110468864441,
        0.9917764067649841
      ],
      "min": [
        0.22143447399139404,
        0.0056549906730651855
      ],
      "type": "VEC2"
    },
    {
      "bufferView": 0,
      "byteOffset": 26928,
      "componentType": 5125,
      "count": 504,
      "type": "SCALAR"
    },
    {
      "bufferView": 2,
      "byteOffset": 45504,
      "componentType": 5126,
      "count": 928,
      "max": [
        2.6749303340911865,
        3.8087217807769775,
        4.943852424621582
      ],
      "min": [
        -2.6749303340911865,
        1.6904704570770264,
        -4.943852424621582
      ],
      "type": "VEC3"
    },
    {
      "bufferView": 2,
      "byteOffset": 56640,
      "componentType": 5126,
      "count": 928,
      "max": [
        1.0,
        0.9999971389770508,
        1.0
      ],
      "min": [
        -1.0,
        -0.9999971389770508,
        -1.0
      ],
      "type": "VEC3"
    },
    {
      "bufferView": 3,
      "byteOffset": 30336,
      "componentType": 5126,
      "count": 928,
      "max": [
        0.9999999403953552,
        1.0,
        0.9999979734420776,
        1.0
      ],
      "min": [
        -0.9999999403953552,
        -0.999999463558197,
        -0.9999979734420776,
        1.0
      ],
      "type": "VEC4"
    },
    {
      "bufferView": 1,
      "byteOffset": 60672,
      "componentType": 5126,
      "count": 928,
      "max": [
        0.9943450689315796,
        0.9883010387420654
      ],
      "min": [
        0.22143444418907166,
        0.005654979031533003
      ],
      "type": "VEC2"
    },
    {
      "bufferView": 1,
      "byteOffset": 68096,
      "componentType": 5126,
      "count": 928,
      "max": [
        0.9943450689315796,
        0.9883010387420654
      ],
      "min": [
        0.22143444418907166,
        0.005654979031533003
      ],
      "type": "VEC2"
    },
    {
      "bufferView": 1,
      "byteOffset": 75520,
      "componentType": 5126,
      "count": 928,
      "max": [
        0.9943450689315796,
        0.9883010387420654
      ],
      "min": [
        0.22143444418907166,
        0.005654979031533003
      ],
      "type": "VEC2"
    },
    {
      "bufferView": 1,
      "byteOffset": 82944,
      "componentType": 5126,
      "count": 928,
      "max": [
        0.9943450689315796,
        0.9883010387420654
      ],
      "min": [
        0.22143444418907166,
        0.005654979031533003
      ],
      "type": "VEC2"
    },
    {
      "bufferView": 0,
      "byteOffset": 28944,
      "componentType": 5125,
      "count": 1560,
      "type": "SCALAR"
    },
    {
      "bufferView": 2,
      "byteOffset": 67776,
      "componentType": 5126,
      "count": 1624,
      "max": [
        2.4853227138519287,
        2.870875597000122,
        4.062422275543213
      ],
      "min": [
        -2.4853227138519287,
        2.1151397228240967,
        -4.062423229217529
      ],
      "type": "VEC3"
    },
    {
      "bufferView": 2,
      "byteOffset": 87264,
      "componentType": 5126,
      "count": 1624,
      "max": [
        1.0,
        0.9974132776260376,
        0.16697171330451965
      ],
      "min": [
        -1.0,
        -0.997439980506897,
        -0.16697119176387787
      ],
      "type": "VEC3"
    },
    {
      "bufferView": 3,
      "byteOffset": 45184,
      "componentType": 5126,
      "count": 1624,
      "max": [
        0.00020351982675492764,
        0.1677704006433487,
        0.997545599937439,
        1.0
      ],
      "min": [
        -0.0001939565991051495,
        -0.16782629489898682,
        -0.9975454807281494,
        1.0
      ],
      "type": "VEC4"
    },
    {
      "bufferView": 1,
      "byteOffset": 90368,
      "componentType": 5126,
      "count": 1624,
      "max": [
        0.8202319741249084,
        0.9841870069503784
      ],
      "min": [
        0.02146369218826294,
        0.8235048055648804
      ],
      "type": "VEC2"
    },
    {
      "bufferView": 1,
      "byteOffset": 103360,
      "componentType": 5126,
      "count": 1624,
      "max": [
        0.8202319741249084,
        0.9841870069503784
      ],
      "min": [
        0.02146369218826294,
        0.8235048055648804
      ],
      "type": "VEC2"
    },
    {
      "bufferView": 1,
      "byteOffset": 116352,
      "componentType": 5126,
      "count": 1624,
      "max": [
        0.8202319741249084,
        0.9841870069503784
      ],
      "min": [
        0.02146369218826294,
        0.8235048055648804
      ],
      "type": "VEC2"
    },
    {
      "bufferView": 1,
      "byteOffset": 129344,
      "componentType": 5126,
      "count": 1624,
      "max": [
        0.8202319741249084,
        0.9841870069503784
      ],
      "min": [
        0.02146369218826294,
        0.8235048055648804
      ],
      "type": "VEC2"
    },
    {
      "bufferView": 0,
      "byteOffset": 35184,
      "componentType": 5125,
      "count": 5304,
      "type": "SCALAR"
    },
    {
      "bufferView": 2,
      "byteOffset": 106752,
      "componentType": 5126,
      "count": 1790,
      "max": [
        2.590129852294922,
        2.907320976257324,
        5.110431671142578
      ],
      "min": [
        -2.590129852294922,
        2.116985559463501,
        -5.1104326248168945
      ],
      "type": "VEC3"
    },
    {
      "bufferView": 2,
      "byteOffset": 128232,
      "componentType": 5126,
      "count": 1790,
      "max": [
        1.0,
        1.0,
        0.9984470009803772
      ],
      "min": [
        -1.0,
        -1.0,
        -0.9984468817710876
      ],
      "type": "VEC3"
    },
    {
      "bufferView": 3,
      "byteOffset": 71168,
      "componentType": 5126,
      "count": 1790,
      "max": [
        1.0,
        1.0,
        0.05571747571229935,
        1.0
      ],
      "min": [
        -1.0,
        -1.0,
        -0.05572834983468056,
        -1.0
      ],
      "type": "VEC4"
    },
    {
      "bufferView": 1,
      "byteOffset": 142336,
      "componentType": 5126,
      "count": 1790,
      "max": [
        0.21012450754642487,
        0.9590859413146973
      ],
      "min": [
        0.005654975771903992,
        0.00565493106842041
      ],
      "type": "VEC2"
    },
    {
      "bufferView": 1,
      "byteOffset": 156656,
      "componentType": 5126,
      "count": 1790,
      "max": [
        0.21012450754642487,
        0.9590859413146973
      ],
      "min": [
        0.005654975771903992,
        0.00565493106842041
      ],
      "type": "VEC2"
    },
    {
      "bufferView": 1,
      "byteOffset": 170976,
      "componentType": 5126,
      "count": 1790,
      "max": [
        0.21012450754642487,
        0.9590859413146973
      ],
      "min": [
        0.005654975771903992,
        0.00565493106842041
      ],
      "type": "VEC2"
    },
    {
      "bufferView": 1,
      "byteOffset": 185296,
      "componentType": 5126,
      "count": 1790,
      "max": [
        0.21012450754642487,
        0.9590859413146973
      ],
      "min": [
        0.005654975771903992,
        0.00565493106842041
      ],
      "type": "VEC2"
    },
    {
      "bufferView": 0,
      "byteOffset": 56400,
      "componentType": 5125,
      "count": 5712,
      "type": "SCALAR"
    },
    {
      "bufferView": 2,
      "byteOffset": 149712,
      "componentType": 5126,
      "count": 6480,
      "max": [
        2.46560001373291,
        3.705612897872925,
        3.932910919189453
      ],
      "min": [
        -2.46560001373291,
        2.385232448577881,
        -3.932908535003662
      ],
      "type": "VEC3"
    },
    {
      "bufferView": 2,
      "byteOffset": 227472,
      "componentType": 5126,
      "count": 6480,
      "max": [
        0.9848082661628723,
        0.7149934768676758,
        1.0
      ],
      "min": [
        -0.9848083853721619,
        -0.860232949256897,
        -1.0
      ],
      "type": "VEC3"
    },
    {
      "bufferView": 3,
      "byteOffset": 99808,
      "componentType": 5126,
      "count": 6480,
      "max": [
        1.0,
        0.6084478497505188,
        0.9959635734558105,
        1.0
      ],
      "min": [
        -1.0,
        -0.6186847686767578,
        -0.9959875345230103,
        1.0
      ],
      "type": "VEC4"
    },
    {
      "bufferView": 1,
      "byteOffset": 199616,
      "componentType": 5126,
      "count": 6480,
      "max": [
        0.8698001503944397,
        0.8454307317733765
      ],
      "min": [
        0.2797735333442688,
        0.0056549906730651855
      ],
      "type": "VEC2"
    },
    {
      "bufferView": 1,
      "byteOffset": 251456,
      "componentType": 5126,
      "count": 6480,
      "max": [
        0.8698001503944397,
        0.8454307317733765
      ],
      "min": [
        0.2797735333442688,
        0.0056549906730651855
      ],
      "type": "VEC2"
    },
    {
      "bufferView": 1,
      "byteOffset": 303296,
      "componentType": 5126,
      "count": 6480,
      "max": [
        0.8698001503944397,
        0.8454307317733765
      ],
      "min": [
        0.2797735333442688,
        0.0056549906730651855
      ],
      "type": "VEC2"
    },
    {
      "bufferView": 1,
      "byteOffset": 355136,
      "componentType": 5126,
      "count": 6480,
      "max": [
        0.8698001503944397,
        0.8454307317733765
      ],
      "min": [
        0.2797735333442688,
        0.0056549906730651855
      ],
      "type": "VEC2"
    },
    {
      "bufferView": 0,
      "byteOffset": 79248,
      "componentType": 5125,
      "count": 31104,
      "type": "SCALAR"
    }
  ],
  "asset": {
    "extras": {
      "author": "FunWithBlender (https://sketchfab.com/HolmH)",
      "license": "CC-BY-NC-ND-4.0 (http://creativecommons.org/licenses/by-nc-nd/4.0/)",
      "source": "https://sketchfab.com/3d-models/vitorian-styled-stone-bridge-d606dda134ec429da65222b0f9304927",
      "title": "Vitorian styled stone bridge"
    },
    "generator": "Sketchfab-15.12.0",
    "version": "2.0"
  },
  "bufferViews": [
    {
      "buffer": 0,
      "byteLength": 203664,
      "name": "floatBufferViews",
      "target": 34963
    },
    {
      "buffer": 0,
      "byteLength": 406976,
      "byteOffset": 203664,
      "byteStride": 8,
      "name": "floatBufferViews",
      "target": 34962
    },
    {
      "buffer": 0,
      "byteLength": 305232,
      "byteOffset": 610640,
      "byteStride": 12,
      "name": "floatBufferViews",
      "target": 34962
    },
    {
      "buffer": 0,
      "byteLength": 203488,
      "byteOffset": 915872,
      "byteStride": 16,
      "name": "floatBufferViews",
      "target": 34962
    }
  ],
  "buffers": [
    {
      "byteLength": 1119360,
      "uri": "scene.bin"
    }
  ],
  "extensionsUsed": [
    "KHR_materials_specular"
  ],
  "images": [
    {
      "uri": "textures/bridge_2_baseColor.png"
    },
    {
      "uri": "textures/bridge_2_metallicRoughness.png"
    },
    {
      "uri": "textures/bridge_2_normal.png"
    },
    {
      "uri": "textures/bridge_1_baseColor.png"
    },
    {
      "uri": "textures/bridge_1_metallicRoughness.png"
    },
    {
      "uri": "textures/bridge_1_normal.png"
    }
  ],
  "materials": [
    {
      "doubleSided": true,
      "extensions": {
        "KHR_materials_specular": {
          "specularColorFactor": [
            1.0,
            1.0,
            1.0
          ],
          "specularFactor": 0.0
        }
      },
      "name": "bridge_2",
      "normalTexture": {
        "index": 2
      },
      "occlusionTexture": {
        "index": 1
      },
      "pbrMetallicRoughness": {
        "baseColorTexture": {
          "index": 0
        },
        "metallicRoughnessTexture": {
          "index": 1
        }
      }
    },
    {
      "doubleSided": true,
      "extensions": {
        "KHR_materials_specular": {
          "specularColorFactor": [
            1.0,
            1.0,
            1.0
          ],
          "specularFactor": 0.0
        }
      },
      "name": "bridge_1",
      "normalTexture": {
        "index": 5
      },
      "occlusionTexture": {
        "index": 4
      },
      "pbrMetallicRoughness": {
        "baseColorTexture": {
          "index": 3
        },
        "metallicRoughnessTexture": {
          "index": 4
        }
      }
    }
  ],
  "meshes": [
    {
      "name": "Object_0",
      "primitives": [
        {
          "attributes": {
            "NORMAL": 1,
            "POSITION": 0,
            "TANGENT": 2,
            "TEXCOORD_0": 3,
            "TEXCOORD_1": 4,
            "TEXCOORD_2": 5,
            "TEXCOORD_3": 6
          },
          "indices": 7,
          "material": 0,
          "mode": 4
        }
      ]
    },
    {
      "name": "Object_1",
      "primitives": [
        {
          "attributes": {
            "NORMAL": 9,
            "POSITION": 8,
            "TANGENT": 10,
            "TEXCOORD_0": 11,
            "TEXCOORD_1": 12,
            "TEXCOORD_2": 13,
            "TEXCOORD_3": 14
          },
          "indices": 15,
          "material": 0,
          "mode": 4
        }
      ]
    },
    {
      "name": "Object_2",
      "primitives": [
        {
          "attributes": {
            "NORMAL": 17,
            "POSITION": 16,
            "TANGENT": 18,
            "TEXCOORD_0": 19,
            "TEXCOORD_1": 20,
            "TEXCOORD_2": 21,
            "TEXCOORD_3": 22
          },
          "indices": 23,
          "material": 1,
          "mode": 4
        }
      ]
    },
    {
      "name": "Object_3",
      "primitives": [
        {
          "attributes": {
            "NORMAL": 25,
            "POSITION": 24,
            "TANGENT": 26,
            "TEXCOORD_0": 27,
            "TEXCOORD_1": 28,
            "TEXCOORD_2": 29,
            "TEXCOORD_3": 30
          },
          "indices": 31,
          "material": 1,
          "mode": 4
        }
      ]
    },
    {
      "name": "Object_4",
      "primitives": [
        {
          "attributes": {
            "NORMAL": 33,
            "POSITION": 32,
            "TANGENT": 34,
            "TEXCOORD_0": 35,
            "TEXCOORD_1": 36,
            "TEXCOORD_2": 37,
            "TEXCOORD_3": 38
          },
          "indices": 39,
          "material": 0,
          "mode": 4
        }
      ]
    },
    {
      "name": "Object_5",
      "primitives": [
        {
          "attributes": {
            "NORMAL": 41,
            "POSITION": 40,
            "TANGENT": 42,
            "TEXCOORD_0": 43,
            "TEXCOORD_1": 44,
            "TEXCOORD_2": 45,
            "TEXCOORD_3": 46
          },
          "indices": 47,
          "material": 1,
          "mode": 4
        }
      ]
    },
    {
      "name": "Object_6",
      "primitives": [
        {
          "attributes": {
            "NORMAL": 49,
            "POSITION": 48,
            "TANGENT": 50,
            "TEXCOORD_0": 51,
            "TEXCOORD_1": 52,
            "TEXCOORD_2": 53,
            "TEXCOORD_3": 54
          },
          "indices": 55,
          "material": 1,
          "mode": 4
        }
      ]
    }
  ],
  "nodes": [
    {
      "children": [
        1
      ],
      "matrix": [
        1.0,
        0.0,
        0.0,
        0.0,
        0.0,
        2.220446049250313e-16,
        -1.0,
        0.0,
        0.0,
        1.0,
        2.220446049250313e-16,
        0.0,
        0.0,
        0.0,
        0.0,
        1.0
      ],
      "name": "Sketchfab_model"
    },
    {
      "children": [
        2
      ],
      "name": "root"
    },
    {
      "children": [
        3,
        5,
        7,
        9,
        11,
        13,
        15
      ],
      "matrix": [
        1.0,
        0.0,
        0.0,
        0.0,
        0.0,
        2.220446049250313e-16,
        1.0,
        0.0,
        0.0,
        -1.0,
        2.220446049250313e-16,
        0.0,
        0.0,
        0.0,
        0.0,
        1.0
      ],
      "name": "GLTF_SceneRootNode"
    },
    {
      "children": [
        4
      ],
      "name": "half_holes_0"
    },
    {
      "mesh": 0,
      "name": "Object_4"
    },
    {
      "children": [
        6
      ],
      "name": "bridge_1"
    },
    {
      "mesh": 1,
      "name": "Object_6"
    },
    {
      "children": [
        8
      ],
      "matrix": [
        1.0,
        0.0,
        0.0,
        0.0,
        0.0,
        1.0,
        0.0,
        0.0,
        0.0,
        0.0,
        1.0,
        0.0,
        0.006653373129665852,
        0.029082434251904488,
        0.2868174910545349,
        1.0
      ],
      "name": "towers_middle_2"
    },
    {
      "mesh": 2,
      "name": "Object_8"
    },
    {
      "children": [
        10
      ],
      "name": "towers_edges_3"
    },
    {
      "mesh": 3,
      "name": "Object_10"
    },
    {
      "children": [
        12
      ],
      "matrix": [
        1.0,
        0.0,
        0.0,
        0.0,
        0.0,
        1.0,
        0.0,
        0.0,
        0.0,
        0.0,
        1.0,
        0.0,
        0.0,
        1.0862144231796265,
        0.0,
        1.0
      ],
      "name": "railing_4"
    },
    {
      "mesh": 4,
      "name": "Object_12"
    },
    {
      "children": [
        14
      ],
      "matrix": [
        1.0,
        0.0,
        0.0,
        0.0,
        0.0,
        1.0,
        0.0,
        0.0,
        0.0,
        0.0,
        1.0,
        0.0,
        0.0,
        -0.009892845526337624,
        0.0,
        1.0
      ],
      "name": "railing_bottom_5"
    },
    {
      "mesh": 5,
      "name": "Object_14"
    },
    {
      "children": [
        16
      ],
      "name": "strives_6"
    },
    {
      "mesh": 6,
      "name": "Object_16"
    }
  ],
  "samplers": [
    {
      "magFilter": 9729,
      "minFilter": 9987,
      "wrapS": 10497,
      "wrapT": 10497
    }
  ],
  "scene": 0,
  "scenes": [
    {
      "name": "Sketchfab_Scene",
      "nodes": [
        0
      ]
    }
  ],
  "textures": [
    {
      "sampler": 0,
      "source": 0
    },
    {
      "sampler": 0,
      "source": 1
    },
    {
      "sampler": 0,
      "source": 2
    },
    {
      "sampler": 0,
      "source": 3
    },
    {
      "sampler": 0,
      "source": 4
    },
    {
      "sampler": 0,
      "source": 5
    }
  ]
}
